<svg width="208" height="28" viewBox="0 0 208 28" fill="none" xmlns="http://www.w3.org/2000/svg">
<path d="M23.9766 16.5547H7.94141V11.4375H23.9766V16.5547ZM26.2617 28H7.94141C7.23828 28 6.47005 27.8763 5.63672 27.6289C4.80339 27.3815 4.02865 26.9779 3.3125 26.418C2.60938 25.8451 2.01693 25.1094 1.53516 24.2109C1.06641 23.2995 0.832031 22.1862 0.832031 20.8711V2.55078C0.832031 2.19922 0.897135 1.86719 1.02734 1.55469C1.15755 1.24219 1.33333 0.96875 1.55469 0.734375C1.78906 0.5 2.0625 0.317708 2.375 0.1875C2.6875 0.0572917 3.02604 -0.0078125 3.39062 -0.0078125H26.2617V5.07031H5.91016V20.8711C5.91016 21.5352 6.08594 22.043 6.4375 22.3945C6.78906 22.7461 7.30339 22.9219 7.98047 22.9219H26.2617V28ZM49.9766 9.99219L58.5312 -0.0078125H65.4648L53.4141 14.0352L65.3867 28H58.4922L49.9766 18.0781L41.5 28H34.5859L46.5391 14.0352L34.5469 -0.0078125H41.4219L49.9766 9.99219ZM99.9805 5.07031H88.7891V28H83.7109V5.07031H72.5V-0.0078125H99.9805V5.07031ZM132.758 16.5547H116.723V11.4375H132.758V16.5547ZM135.043 28H116.723C116.02 28 115.251 27.8763 114.418 27.6289C113.585 27.3815 112.81 26.9779 112.094 26.418C111.391 25.8451 110.798 25.1094 110.316 24.2109C109.848 23.2995 109.613 22.1862 109.613 20.8711V2.55078C109.613 2.19922 109.678 1.86719 109.809 1.55469C109.939 1.24219 110.115 0.96875 110.336 0.734375C110.57 0.5 110.844 0.317708 111.156 0.1875C111.469 0.0572917 111.807 -0.0078125 112.172 -0.0078125H135.043V5.07031H114.691V20.8711C114.691 21.5352 114.867 22.043 115.219 22.3945C115.57 22.7461 116.085 22.9219 116.762 22.9219H135.043V28ZM171.277 5.07031H160.086V28H155.008V5.07031H143.797V-0.0078125H171.277V5.07031ZM207.531 28H202.453V21.125H184.602V28H179.523V13.9961C179.523 11.9518 179.875 10.0703 180.578 8.35156C181.281 6.63281 182.258 5.15495 183.508 3.91797C184.758 2.68099 186.236 1.71745 187.941 1.02734C189.647 0.33724 191.509 -0.0078125 193.527 -0.0078125H204.973C205.324 -0.0078125 205.656 0.0572917 205.969 0.1875C206.281 0.317708 206.555 0.5 206.789 0.734375C207.023 0.96875 207.206 1.24219 207.336 1.55469C207.466 1.86719 207.531 2.19922 207.531 2.55078V28ZM184.602 16.0469H202.453V5.07031H193.527C193.371 5.07031 193.039 5.09635 192.531 5.14844C192.036 5.1875 191.457 5.29818 190.793 5.48047C190.142 5.66276 189.452 5.94271 188.723 6.32031C187.993 6.69792 187.323 7.21875 186.711 7.88281C186.099 8.54688 185.591 9.38021 185.188 10.3828C184.797 11.3724 184.602 12.5768 184.602 13.9961V16.0469Z" fill="white"/>
</svg>
